# xmcd CD database file
#
# Track frame offsets:
#	150
#	18922
#	35752
#
# Disc length: 725 seconds
#
# Revision: 0
# Processed by: cddbd v1.5PL3 Copyright (c) Steve Scherf et al.
# Submitted via: CDex 1.40Release
#
DISCID=1c02d303
DTITLE=小川七生 - 月灯りふんわり落ちてくる夜
DYEAR=1997
DGENRE=Vocal
TTITLE0=月灯りふんわり落ちてくる夜
TTITLE1=ようこそTime machineへ
TTITLE2=月灯りふんわり落ちてくる夜　オリジナルカラオケ
EXTD=YEAR: 1997 ID3G: 28
EXTT0=
EXTT1=
EXTT2=
PLAYORDER=
